grf
version=1
nRows=19
nColumns=37
inDegrees=no
endheader
time	ground_force_1_vx	ground_force_1_vy	ground_force_1_vz	ground_force_1_px	ground_force_1_py	ground_force_1_pz	ground_moment_1_mx	ground_moment_1_my	ground_moment_1_mz	ground_force_2_vx	ground_force_2_vy	ground_force_2_vz	ground_force_2_px	ground_force_2_py	ground_force_2_pz	ground_moment_2_mx	ground_moment_2_my	ground_moment_2_mz	ground_force_3_vx	ground_force_3_vy	ground_force_3_vz	ground_force_3_px	ground_force_3_py	ground_force_3_pz	ground_moment_3_mx	ground_moment_3_my	ground_moment_3_mz	ground_force_4_vx	ground_force_4_vy	ground_force_4_vz	ground_force_4_px	ground_force_4_py	ground_force_4_pz	ground_moment_4_mx	ground_moment_4_my	ground_moment_4_mz
      6.24000000	      0.00000000	     -0.00000000	      0.00000000	      0.00000000	      0.00000000	      0.00000000	      0.00000000	      0.00000000	      0.00000000	     27.29841614	     75.55571747	   -625.95819092	   -427.19963954	  -1089.47145085	      0.00000000	      0.00000000	      0.00000000	    554.95663885	      2.54404704	     -6.33672641	   -144.17587280	   -421.42853229	   -773.66674855	      0.00000000	      0.00000000	      0.00000000	   2333.53050881	      0.00000000	     -0.00000000	      0.00000000	      0.00000000	      0.00000000	      0.00000000	      0.00000000	      0.00000000	      0.00000000
      6.25000000	      0.00000000	     -0.00000000	      0.00000000	      0.00000000	      0.00000000	      0.00000000	      0.00000000	      0.00000000	      0.00000000	     29.35546494	     82.95474243	   -656.67010498	   -426.55193890	  -1090.01566696	      0.00000000	     -0.00000000	      0.00000000	    645.75930749	      1.06191364	     -3.70951090	   -113.81313324	   -421.20748146	   -775.36157836	      0.00000000	      0.00000000	      0.00000000	   2240.88974120	      0.00000000	     -0.00000000	      0.00000000	      0.00000000	      0.00000000	      0.00000000	      0.00000000	      0.00000000	      0.00000000
      6.26000000	      0.00000000	     -0.00000000	      0.00000000	      0.00000000	      0.00000000	      0.00000000	      0.00000000	      0.00000000	      0.00000000	     31.76174927	     90.05375671	   -686.35559082	   -426.21621253	  -1090.63234326	      0.00000000	      0.00000000	      0.00000000	    966.85523404	      0.23732396	     -1.79511561	    -89.26042938	   -419.28585254	   -771.79241514	      0.00000000	      0.00000000	      0.00000000	   2072.70193401	      0.00000000	     -0.00000000	      0.00000000	      0.00000000	      0.00000000	      0.00000000	      0.00000000	      0.00000000	      0.00000000
      6.27000000	      0.00000000	     -0.00000000	      0.00000000	      0.00000000	      0.00000000	      0.00000000	      0.00000000	      0.00000000	      0.00000000	     33.24509048	     95.81726074	   -712.13537598	   -426.03975342	  -1091.30396381	      0.00000000	      0.00000000	      0.00000000	    758.31815443	     -0.35676671	     -0.14592603	    -65.86822510	   -418.10105452	   -773.47478964	      0.00000000	      0.00000000	      0.00000000	   1809.36425722	      0.00000000	     -0.00000000	      0.00000000	      0.00000000	      0.00000000	      0.00000000	      0.00000000	      0.00000000	      0.00000000
      6.28000000	      0.00000000	     -0.00000000	      0.00000000	      0.00000000	      0.00000000	      0.00000000	      0.00000000	      0.00000000	      0.00000000	     35.68420410	     99.94466400	   -731.90832520	   -425.87569451	  -1091.72111429	      0.00000000	      0.00000000	      0.00000000	   1035.91115488	     -0.70968619	      1.02938348	    -47.82148361	   -419.73547554	   -766.53332574	      0.00000000	      0.00000000	      0.00000000	   1335.75505009	      0.00000000	     -0.00000000	      0.00000000	      0.00000000	      0.00000000	      0.00000000	      0.00000000	      0.00000000	      0.00000000
      6.29000000	      0.00000000	     -0.00000000	      0.00000000	      0.00000000	      0.00000000	      0.00000000	      0.00000000	      0.00000000	      0.00000000	     37.08192825	    103.09425354	   -747.80151367	   -425.09559043	  -1092.50132142	      0.00000000	      0.00000000	      0.00000000	    781.39292203	     -1.47773858	      1.76643385	    -32.46195602	   -421.07861562	   -781.86773527	      0.00000000	      0.00000000	      0.00000000	   1060.04569925	      0.00000000	     -0.00000000	      0.00000000	      0.00000000	      0.00000000	      0.00000000	      0.00000000	      0.00000000	      0.00000000
      6.30000000	      0.00000000	     -0.00000000	      0.00000000	      0.00000000	      0.00000000	      0.00000000	      0.00000000	      0.00000000	      0.00000000	     37.73604584	    104.72805023	   -755.80480957	   -425.24292241	  -1092.13546246	      0.00000000	      0.00000000	      0.00000000	    746.69378029	     -0.67373699	      0.64161760	     -7.14812183	   -409.76106450	   -762.91216888	      0.00000000	      0.00000000	      0.00000000	    192.77150120	      0.00000000	     -0.00000000	      0.00000000	      0.00000000	      0.00000000	      0.00000000	      0.00000000	      0.00000000	      0.00000000
      6.31000000	      0.00000000	     -0.00000000	      0.00000000	      0.00000000	      0.00000000	      0.00000000	      0.00000000	      0.00000000	      0.00000000	     38.62772751	    104.96576691	   -756.27819824	   -424.80943715	  -1091.89236794	      0.00000000	      0.00000000	      0.00000000	    659.30299717	      0.00000000	     -0.00000000	      0.00000000	      0.00000000	      0.00000000	      0.00000000	      0.00000000	      0.00000000	      0.00000000	      0.00000000	     -0.00000000	      0.00000000	      0.00000000	      0.00000000	      0.00000000	      0.00000000	      0.00000000	      0.00000000
      6.32000000	      0.00000000	     -0.00000000	      0.00000000	      0.00000000	      0.00000000	      0.00000000	      0.00000000	      0.00000000	      0.00000000	     37.79446411	    104.72743225	   -756.04577637	   -423.35583263	  -1092.57399362	      0.00000000	      0.00000000	      0.00000000	    372.13234046	      0.00000000	     -0.00000000	      0.00000000	      0.00000000	      0.00000000	      0.00000000	      0.00000000	      0.00000000	      0.00000000	      0.00000000	     -0.00000000	      0.00000000	      0.00000000	      0.00000000	      0.00000000	      0.00000000	      0.00000000	      0.00000000
      6.33000000	      0.00000000	     -0.00000000	      0.00000000	      0.00000000	      0.00000000	      0.00000000	      0.00000000	      0.00000000	      0.00000000	     35.71195221	    104.28257751	   -751.92004395	   -422.71088420	  -1092.92599707	      0.00000000	      0.00000000	      0.00000000	    322.24039290	      0.00000000	     -0.00000000	      0.00000000	      0.00000000	      0.00000000	      0.00000000	      0.00000000	      0.00000000	      0.00000000	      0.00000000	     -0.00000000	      0.00000000	      0.00000000	      0.00000000	      0.00000000	      0.00000000	      0.00000000	      0.00000000
      6.34000000	      0.00000000	     -0.00000000	      0.00000000	      0.00000000	      0.00000000	      0.00000000	      0.00000000	      0.00000000	      0.00000000	     33.48418808	    103.45323181	   -746.85583496	   -421.19933386	  -1093.02095340	      0.00000000	     -0.00000000	      0.00000000	    129.43951080	      0.00000000	     -0.00000000	      0.00000000	      0.00000000	      0.00000000	      0.00000000	      0.00000000	      0.00000000	      0.00000000	      0.00000000	     -0.00000000	      0.00000000	      0.00000000	      0.00000000	      0.00000000	      0.00000000	      0.00000000	      0.00000000
      6.35000000	      0.00000000	     -0.00000000	      0.00000000	      0.00000000	      0.00000000	      0.00000000	      0.00000000	      0.00000000	      0.00000000	     31.19520378	    102.91716766	   -739.67907715	   -420.52509444	  -1093.66094800	      0.00000000	      0.00000000	      0.00000000	    164.77716036	      0.00000000	     -0.00000000	      0.00000000	      0.00000000	      0.00000000	      0.00000000	      0.00000000	      0.00000000	      0.00000000	      0.00000000	     -0.00000000	      0.00000000	      0.00000000	      0.00000000	      0.00000000	      0.00000000	      0.00000000	      0.00000000
      6.36000000	      0.00000000	     -0.00000000	      0.00000000	      0.00000000	      0.00000000	      0.00000000	      0.00000000	      0.00000000	      0.00000000	     29.58965874	    101.57369232	   -733.21051025	   -418.93735287	  -1093.98112907	      0.00000000	     -0.00000000	     -0.00000000	   -240.91901521	      0.00000000	     -0.00000000	      0.00000000	      0.00000000	      0.00000000	      0.00000000	      0.00000000	      0.00000000	      0.00000000	      0.00000000	     -0.00000000	      0.00000000	      0.00000000	      0.00000000	      0.00000000	      0.00000000	      0.00000000	      0.00000000
      6.37000000	      0.00000000	     -0.00000000	      0.00000000	      0.00000000	      0.00000000	      0.00000000	      0.00000000	      0.00000000	      0.00000000	     27.36498260	    100.36083984	   -726.49108887	   -417.68657773	  -1093.77760028	      0.00000000	      0.00000000	     -0.00000000	   -443.32175813	      0.00000000	     -0.00000000	      0.00000000	      0.00000000	      0.00000000	      0.00000000	      0.00000000	      0.00000000	      0.00000000	      0.00000000	     -0.00000000	      0.00000000	      0.00000000	      0.00000000	      0.00000000	      0.00000000	      0.00000000	      0.00000000
      6.38000000	      0.00000000	     -0.00000000	      0.00000000	      0.00000000	      0.00000000	      0.00000000	      0.00000000	      0.00000000	      0.00000000	     26.33886147	     98.82388306	   -720.73040771	   -416.45545058	  -1093.53566519	      0.00000000	      0.00000000	     -0.00000000	   -566.81366150	      0.00000000	     -0.00000000	      0.00000000	      0.00000000	      0.00000000	      0.00000000	      0.00000000	      0.00000000	      0.00000000	      0.00000000	     -0.00000000	      0.00000000	      0.00000000	      0.00000000	      0.00000000	      0.00000000	      0.00000000	      0.00000000
      6.39000000	      0.00000000	     -0.00000000	      0.00000000	      0.00000000	      0.00000000	      0.00000000	      0.00000000	      0.00000000	      0.00000000	     26.46130753	     97.81023407	   -712.33734131	   -415.57003513	  -1093.93466907	      0.00000000	      0.00000000	     -0.00000000	   -634.54475497	      0.00000000	     -0.00000000	      0.00000000	      0.00000000	      0.00000000	      0.00000000	      0.00000000	      0.00000000	      0.00000000	      0.00000000	     -0.00000000	      0.00000000	      0.00000000	      0.00000000	      0.00000000	      0.00000000	      0.00000000	      0.00000000
      6.40000000	      0.00000000	     -0.00000000	      0.00000000	      0.00000000	      0.00000000	      0.00000000	      0.00000000	      0.00000000	      0.00000000	     26.87207603	     96.00095367	   -700.52313232	   -414.99949248	  -1093.47997525	      0.00000000	      0.00000000	     -0.00000000	   -759.57183311	    -11.48275483	     -1.37992484	    -23.87363815	   -396.24564914	   -759.99020719	      0.00000000	      0.00000000	     -0.00000000	   -359.32587814	      0.00000000	     -0.00000000	      0.00000000	      0.00000000	      0.00000000	      0.00000000	      0.00000000	      0.00000000	      0.00000000
      6.41000000	      0.00000000	     -0.00000000	      0.00000000	      0.00000000	      0.00000000	      0.00000000	      0.00000000	      0.00000000	      0.00000000	     27.24031639	     93.92472076	   -691.29632568	   -413.71904025	  -1094.49666574	      0.00000000	      0.00000000	     -0.00000000	   -968.07094927	     -4.31939861	     -2.35417924	    -38.73056030	   -394.47486068	   -762.00227994	      0.00000000	      0.00000000	     -0.00000000	   -273.70191121	      0.00000000	     -0.00000000	      0.00000000	      0.00000000	      0.00000000	      0.00000000	      0.00000000	      0.00000000	      0.00000000
      6.42000000	      0.00000000	     -0.00000000	      0.00000000	      0.00000000	      0.00000000	      0.00000000	      0.00000000	      0.00000000	      0.00000000	     27.24041557	     92.49058533	   -676.92236328	   -413.09933443	  -1094.36855757	      0.00000000	      0.00000000	     -0.00000000	   -795.82062358	     -2.00959898	     -5.61492759	    -62.02796173	   -388.14376593	   -758.91850909	      0.00000000	      0.00000000	     -0.00000000	   -528.39973031	      0.00000000	     -0.00000000	      0.00000000	      0.00000000	      0.00000000	      0.00000000	      0.00000000	      0.00000000	      0.00000000
